<?xml version="1.0" standalone="no"?>
<!DOCTYPE svg PUBLIC "-//W3C//DTD SVG 20010904//EN"
 "http://www.w3.org/TR/2001/REC-SVG-20010904/DTD/svg10.dtd">
<svg version="1.0" xmlns="http://www.w3.org/2000/svg"
 width="768.000000pt" height="87.000000pt" viewBox="0 0 768.000000 87.000000"
 preserveAspectRatio="xMidYMid meet">
<metadata>
Created by potrace 1.16, written by Peter Selinger 2001-2019
</metadata>
<g transform="translate(0.000000,87.000000) scale(0.100000,-0.100000)"
fill="#000000" stroke="none">
<path d="M1898 841 c-76 -25 -118 -52 -177 -116 -73 -81 -95 -144 -95 -280 -1
-164 42 -265 145 -341 76 -56 139 -76 254 -82 106 -5 184 9 270 47 l43 19 -14
77 c-7 43 -16 80 -19 83 -3 3 -22 -4 -43 -15 -50 -28 -137 -53 -184 -53 -77 0
-130 21 -180 71 -55 55 -72 104 -71 201 1 90 39 170 101 213 41 28 49 30 140
30 91 0 101 -2 156 -33 33 -17 63 -29 67 -25 3 5 12 43 19 87 14 91 17 86 -79
116 -84 27 -251 27 -333 1z"/>
<path d="M10 563 c0 -165 4 -304 10 -325 17 -61 71 -130 127 -164 70 -42 152
-58 266 -52 120 6 198 39 262 110 71 80 75 100 75 430 l0 288 -100 0 -100 0 0
-272 c0 -245 -2 -277 -19 -314 -49 -109 -246 -112 -300 -5 -20 38 -21 57 -21
316 l0 275 -100 0 -100 0 0 -287z"/>
<path d="M910 439 l0 -411 198 4 c235 6 281 17 353 88 99 95 89 256 -19 321
-20 12 -39 24 -41 25 -2 2 11 16 29 31 91 76 78 237 -25 302 -66 42 -122 51
-320 51 l-175 0 0 -411z m357 246 c12 -9 25 -26 29 -40 18 -71 -34 -115 -133
-115 l-63 0 0 91 0 92 72 -7 c40 -4 83 -13 95 -21z m-23 -306 c56 -15 86 -50
86 -96 0 -21 -7 -46 -14 -55 -22 -29 -81 -48 -151 -48 l-65 0 0 105 0 105 53
0 c28 0 69 -5 91 -11z"/>
</g>
</svg>
